<svg width="31" height="31" viewBox="0 0 31 31" fill="none" xmlns="http://www.w3.org/2000/svg">
<path d="M19.5077 24.2297C19.5077 25.2188 19.1148 26.1673 18.4154 26.8666C17.7161 27.566 16.7675 27.9589 15.7785 27.9589C14.7895 27.9589 13.8409 27.566 13.1416 26.8666C12.4422 26.1673 12.0493 25.2188 12.0493 24.2297M16.6748 6.83066L14.8524 6.82693C10.6957 6.81698 7.08706 10.1944 7.05847 14.2853L7.05847 18.9965C7.05847 19.9785 6.93416 20.9369 6.39841 21.7535L6.04165 22.298C5.49843 23.1234 6.08267 24.2297 7.05847 24.2297L24.4986 24.2297C25.4744 24.2297 26.0573 23.1234 25.5154 22.298L25.1586 21.7535C24.6241 20.9369 24.4986 19.9772 24.4986 18.9952V14.2865C24.4488 10.1944 20.8315 6.8406 16.6748 6.83066V6.83066Z" stroke="white" stroke-width="2.48611" stroke-linecap="round" stroke-linejoin="round"/>
<path d="M15.779 3.09796C16.4383 3.09796 17.0707 3.35989 17.5369 3.82613C18.0031 4.29236 18.2651 4.92472 18.2651 5.58407V6.82713L13.2928 6.82713V5.58407C13.2928 4.92472 13.5548 4.29236 14.021 3.82613C14.4872 3.35989 15.1196 3.09796 15.779 3.09796Z" stroke="white" stroke-width="2.48611" stroke-linecap="round" stroke-linejoin="round"/>
</svg>
