<svg width="6" height="9" viewBox="0 0 6 9" fill="none" xmlns="http://www.w3.org/2000/svg">
<path d="M5.46556 4.7114C5.46132 4.48701 5.38512 4.30919 5.20307 4.13138L2.01505 1.01533C1.87957 0.884085 1.72292 0.816345 1.52817 0.816345C1.13866 0.816345 0.816895 1.13388 0.816895 1.51915C0.816895 1.7139 0.897336 1.89172 1.04552 2.0399L3.80593 4.70717L1.04552 7.3829C0.897336 7.52685 0.816895 7.70467 0.816895 7.90365C0.816895 8.28892 1.13866 8.60646 1.52817 8.60646C1.71868 8.60646 1.87957 8.54295 2.01505 8.40747L5.20307 5.29143C5.38512 5.11361 5.46556 4.93156 5.46556 4.7114Z" fill="#1E2B72"/>
</svg>
