<svg width="158" height="130" viewBox="0 0 158 130" fill="none" xmlns="http://www.w3.org/2000/svg">
<rect x="75.3212" y="0.146118" width="91.0111" height="95.4791" rx="17.4028" transform="rotate(26.0633 75.3212 0.146118)" fill="#F8D910"/>
<mask id="path-2-inside-1_40_22" fill="white">
<path fill-rule="evenodd" clip-rule="evenodd" d="M95.4443 10.4016C85.577 5.57546 73.6656 9.66218 68.8395 19.5295L61.6206 34.2889C57.722 33.2781 53.6328 32.7402 49.4181 32.7402C22.6437 32.7402 0.938843 54.4451 0.938843 81.2194C0.938843 107.994 22.6437 129.699 49.4181 129.699C66.503 129.699 81.5237 120.861 90.1579 107.507L100.812 112.718C110.679 117.544 122.591 113.458 127.417 103.59L149.286 58.8761C154.113 49.0088 150.026 37.0974 140.158 32.2713L95.4443 10.4016Z"/>
</mask>
<path fill-rule="evenodd" clip-rule="evenodd" d="M95.4443 10.4016C85.577 5.57546 73.6656 9.66218 68.8395 19.5295L61.6206 34.2889C57.722 33.2781 53.6328 32.7402 49.4181 32.7402C22.6437 32.7402 0.938843 54.4451 0.938843 81.2194C0.938843 107.994 22.6437 129.699 49.4181 129.699C66.503 129.699 81.5237 120.861 90.1579 107.507L100.812 112.718C110.679 117.544 122.591 113.458 127.417 103.59L149.286 58.8761C154.113 49.0088 150.026 37.0974 140.158 32.2713L95.4443 10.4016Z" fill="#FE7A15"/>
<path d="M68.8395 19.5295L63.2562 16.7987V16.7987L68.8395 19.5295ZM95.4443 10.4016L98.1751 4.81833V4.81833L95.4443 10.4016ZM61.6206 34.2889L60.0607 40.3053L64.9739 41.5791L67.2039 37.0197L61.6206 34.2889ZM90.1579 107.507L92.8887 101.924L87.9337 99.5007L84.9387 104.133L90.1579 107.507ZM100.812 112.718L98.0811 118.302L100.812 112.718ZM127.417 103.59L133 106.321L127.417 103.59ZM149.286 58.8761L154.87 61.6069V61.6069L149.286 58.8761ZM140.158 32.2713L137.428 37.8545V37.8545L140.158 32.2713ZM74.4227 22.2603C77.7407 15.4765 85.9298 12.6669 92.7136 15.9848L98.1751 4.81833C85.2242 -1.51595 69.5905 3.84788 63.2562 16.7987L74.4227 22.2603ZM67.2039 37.0197L74.4227 22.2603L63.2562 16.7987L56.0374 31.5582L67.2039 37.0197ZM49.4181 38.9555C53.1021 38.9555 56.6672 39.4254 60.0607 40.3053L63.1805 28.2726C58.7768 27.1308 54.1636 26.525 49.4181 26.525V38.9555ZM7.15413 81.2194C7.15413 57.8777 26.0763 38.9555 49.4181 38.9555V26.525C19.2111 26.525 -5.27644 51.0125 -5.27644 81.2194H7.15413ZM49.4181 123.483C26.0763 123.483 7.15413 104.561 7.15413 81.2194H-5.27644C-5.27644 111.426 19.2111 135.914 49.4181 135.914V123.483ZM84.9387 104.133C77.4011 115.79 64.3062 123.483 49.4181 123.483V135.914C68.6998 135.914 85.6464 125.932 95.3772 110.882L84.9387 104.133ZM103.543 107.135L92.8887 101.924L87.4272 113.091L98.0811 118.302L103.543 107.135ZM121.833 100.86C118.516 107.643 110.326 110.453 103.543 107.135L98.0811 118.302C111.032 124.636 126.666 119.272 133 106.321L121.833 100.86ZM143.703 56.1454L121.833 100.86L133 106.321L154.87 61.6069L143.703 56.1454ZM137.428 37.8545C144.212 41.1725 147.021 49.3616 143.703 56.1454L154.87 61.6069C161.204 48.656 155.84 33.0223 142.889 26.688L137.428 37.8545ZM92.7136 15.9848L137.428 37.8545L142.889 26.688L98.1751 4.81833L92.7136 15.9848Z" fill="#FAF6F5" mask="url(#path-2-inside-1_40_22)"/>
<rect x="80.8857" y="8" width="80.7913" height="80.7108" rx="17.4028" transform="rotate(26.0633 80.8857 8)" fill="#32ABFF"/>
<path d="M94.9549 65.9792L109.312 70.4957" stroke="black" stroke-width="6.46804"/>
<circle cx="13.2963" cy="13.2963" r="13.2963" transform="matrix(-0.536343 0.844 0.844 0.536343 111.481 31.8403)" fill="white"/>
<circle cx="3.32407" cy="3.32407" r="3.32407" transform="matrix(-0.536343 0.844 0.844 0.536343 114.548 45.6046)" fill="#0D0D0D"/>
<circle cx="13.2963" cy="13.2963" r="13.2963" transform="matrix(-0.536343 0.844 0.844 0.536343 88.788 27.2639)" fill="white"/>
<circle cx="3.32407" cy="3.32407" r="3.32407" transform="matrix(-0.536343 0.844 0.844 0.536343 91.8567 41.0299)" fill="#0D0D0D"/>
<path d="M14.6111 73.7037C16.2685 75.9827 21.1993 79.4218 27.6632 74.9468C29.5278 72.875 32.1382 67.6128 27.6632 63.1378" stroke="black" stroke-width="3.72917"/>
<path d="M36.364 55.6787C38.0214 57.9577 42.9522 61.3968 49.4161 56.9218C51.2807 54.85 53.8911 49.5877 49.4161 45.1127" stroke="black" stroke-width="3.72917"/>
<path d="M47.1221 67.272C47.4537 71.081 46.042 77.8452 37.7428 74.4297" stroke="black" stroke-width="3.72917"/>
</svg>
