<svg width="67" height="27" viewBox="0 0 67 27" fill="none" xmlns="http://www.w3.org/2000/svg">
<path d="M6.96843 5.53829C6.88544 5.45362 6.78658 5.38613 6.6775 5.33967C6.56842 5.29322 6.45125 5.26871 6.3327 5.26756C6.21414 5.26641 6.09652 5.28862 5.98655 5.33294C5.87659 5.37726 5.77643 5.44282 5.69181 5.52586C4.73459 6.47752 3.97529 7.6093 3.4577 8.8559C2.94012 10.1025 2.67449 11.4393 2.67616 12.789C2.6746 14.1906 2.96113 15.5775 3.51796 16.8638C4.07478 18.15 4.89002 19.308 5.91307 20.266C6.08526 20.4252 6.31271 20.511 6.54712 20.5052C6.78154 20.4994 7.00446 20.4024 7.16856 20.235C7.56137 19.8421 7.51289 19.2169 7.135 18.8552C6.31396 18.0727 5.6606 17.1315 5.21462 16.0886C4.76865 15.0458 4.53938 13.9232 4.54074 12.789C4.54074 10.4944 5.46184 8.41348 6.956 6.89944C7.31649 6.53274 7.35378 5.92364 6.96843 5.53829ZM9.15745 7.7298C8.99374 7.56135 8.76993 7.46467 8.53506 7.46094C8.30019 7.45721 8.07343 7.54674 7.90445 7.70991C7.23189 8.37365 6.69805 9.16451 6.33398 10.0365C5.96992 10.9085 5.78289 11.8441 5.7838 12.789C5.78234 13.7882 5.99109 14.7764 6.39649 15.6896C6.80189 16.6027 7.39487 17.4204 8.1369 18.0894C8.30751 18.2402 8.52957 18.3195 8.75707 18.3109C8.98456 18.3023 9.20004 18.2066 9.35883 18.0434C9.76655 17.6357 9.69072 16.9943 9.30786 16.6338C8.78305 16.1405 8.36501 15.5448 8.07958 14.8834C7.79415 14.2221 7.64739 13.5093 7.64838 12.789C7.64838 11.3595 8.21646 10.0618 9.14005 9.10959C9.49556 8.74413 9.55399 8.12385 9.15745 7.72856V7.7298ZM16.0838 7.7298C16.2475 7.56135 16.4713 7.46467 16.7062 7.46094C16.941 7.45721 17.1678 7.54674 17.3368 7.70991C18.0093 8.37365 18.5432 9.16451 18.9072 10.0365C19.2713 10.9085 19.4583 11.8441 19.4574 12.789C19.4589 13.7882 19.2501 14.7764 18.8447 15.6896C18.4393 16.6027 17.8463 17.4204 17.1043 18.0894C16.9337 18.2402 16.7116 18.3195 16.4841 18.3109C16.2567 18.3023 16.0412 18.2066 15.8824 18.0434C15.4747 17.6357 15.5505 16.9943 15.9334 16.6338C16.4582 16.1405 16.8762 15.5448 17.1616 14.8834C17.4471 14.2221 17.5938 13.5093 17.5928 12.789C17.5928 11.3595 17.0248 10.0618 16.1012 9.10959C15.7457 8.74413 15.6872 8.12385 16.0838 7.72856V7.7298ZM18.2728 5.53954C18.3558 5.45486 18.4546 5.38737 18.5637 5.34091C18.6728 5.29446 18.79 5.26996 18.9085 5.2688C19.0271 5.26765 19.1447 5.28987 19.2547 5.33419C19.3646 5.37851 19.4648 5.44406 19.5494 5.5271C20.5065 6.47862 21.2657 7.61019 21.7833 8.85657C22.3009 10.1029 22.5666 11.4395 22.5651 12.789C22.5666 14.1906 22.2801 15.5775 21.7233 16.8638C21.1664 18.15 20.3512 19.308 19.3281 20.266C19.156 20.4252 18.9285 20.511 18.6941 20.5052C18.4597 20.4994 18.2368 20.4024 18.0727 20.235C17.6798 19.8421 17.7283 19.2169 18.1075 18.8552C18.9283 18.0726 19.5814 17.1313 20.0272 16.0885C20.4729 15.0457 20.702 13.9231 20.7005 12.789C20.7005 10.4944 19.7794 8.41348 18.2852 6.89944C17.9247 6.53274 17.8874 5.92364 18.2728 5.53829V5.53954ZM12.6206 10.9245C12.1261 10.9245 11.6518 11.1209 11.3021 11.4706C10.9525 11.8203 10.756 12.2945 10.756 12.789C10.756 13.2836 10.9525 13.7578 11.3021 14.1075C11.6518 14.4572 12.1261 14.6536 12.6206 14.6536C13.1151 14.6536 13.5894 14.4572 13.9391 14.1075C14.2887 13.7578 14.4852 13.2836 14.4852 12.789C14.4852 12.2945 14.2887 11.8203 13.9391 11.4706C13.5894 11.1209 13.1151 10.9245 12.6206 10.9245Z" fill="#F24E1E"/>
<path d="M42.0646 17.9709C42.0646 18.1652 42.0549 18.3303 42.0355 18.4662C42.0225 18.5957 41.9999 18.7058 41.9675 18.7964C41.9351 18.8806 41.8931 18.9421 41.8413 18.9809C41.7959 19.0198 41.7409 19.0392 41.6762 19.0392H35.9173C35.7037 19.0392 35.5224 18.9777 35.3735 18.8547C35.231 18.7252 35.1598 18.518 35.1598 18.2331V6.82227C35.1598 6.75753 35.1793 6.69926 35.2181 6.64746C35.2634 6.59567 35.3346 6.55359 35.4318 6.52122C35.5289 6.48884 35.6583 6.46295 35.8202 6.44352C35.9885 6.4241 36.1957 6.41439 36.4417 6.41439C36.6942 6.41439 36.9014 6.4241 37.0633 6.44352C37.2251 6.46295 37.3546 6.48884 37.4517 6.52122C37.5488 6.55359 37.6168 6.59567 37.6557 6.64746C37.701 6.69926 37.7236 6.75753 37.7236 6.82227V16.9318H41.6762C41.7409 16.9318 41.7959 16.9512 41.8413 16.9901C41.8931 17.0225 41.9351 17.0807 41.9675 17.1649C41.9999 17.2426 42.0225 17.3494 42.0355 17.4854C42.0549 17.6148 42.0646 17.7767 42.0646 17.9709ZM45.8715 18.709C45.8715 18.7737 45.8521 18.832 45.8132 18.8838C45.7744 18.9291 45.7064 18.968 45.6093 19.0003C45.5186 19.0327 45.3956 19.0554 45.2402 19.0683C45.0849 19.0877 44.8874 19.0975 44.6479 19.0975C44.4083 19.0975 44.2108 19.0877 44.0555 19.0683C43.9001 19.0554 43.7738 19.0327 43.6767 19.0003C43.5861 18.968 43.5213 18.9291 43.4825 18.8838C43.4436 18.832 43.4242 18.7737 43.4242 18.709V10.0659C43.4242 10.0011 43.4436 9.9461 43.4825 9.90078C43.5213 9.84898 43.5861 9.8069 43.6767 9.77453C43.7738 9.73568 43.9001 9.70655 44.0555 9.68713C44.2108 9.6677 44.4083 9.65799 44.6479 9.65799C44.8874 9.65799 45.0849 9.6677 45.2402 9.68713C45.3956 9.70655 45.5186 9.73568 45.6093 9.77453C45.7064 9.8069 45.7744 9.84898 45.8132 9.90078C45.8521 9.9461 45.8715 10.0011 45.8715 10.0659V18.709ZM46.056 7.11361C46.056 7.60565 45.9556 7.94555 45.7549 8.1333C45.5542 8.32106 45.182 8.41493 44.6381 8.41493C44.0878 8.41493 43.7156 8.3243 43.5213 8.14302C43.3336 7.96174 43.2397 7.63479 43.2397 7.16217C43.2397 6.67012 43.3368 6.33023 43.531 6.14247C43.7317 5.94824 44.1073 5.85113 44.6576 5.85113C45.2014 5.85113 45.5704 5.94501 45.7647 6.13276C45.9589 6.31404 46.056 6.64099 46.056 7.11361ZM56.2918 10.0367C56.2918 10.0691 56.2886 10.108 56.2821 10.1533C56.2821 10.1986 56.2756 10.2504 56.2627 10.3087C56.2562 10.3604 56.2432 10.422 56.2238 10.4932C56.2109 10.5644 56.1914 10.6453 56.1655 10.736L53.5629 18.573C53.5305 18.6831 53.4852 18.7737 53.4269 18.845C53.3751 18.9097 53.2845 18.9615 53.155 19.0003C53.032 19.0392 52.8604 19.0651 52.6403 19.078C52.4267 19.091 52.145 19.0975 51.7954 19.0975C51.4523 19.0975 51.1707 19.0877 50.9505 19.0683C50.7369 19.0554 50.5686 19.0295 50.4455 18.9906C50.3225 18.9518 50.2319 18.9 50.1736 18.8352C50.1218 18.764 50.0797 18.6766 50.0474 18.573L47.4447 10.736C47.4059 10.6065 47.3735 10.4899 47.3476 10.3863C47.3282 10.2828 47.3152 10.2083 47.3088 10.163C47.3088 10.1177 47.3088 10.0756 47.3088 10.0367C47.3088 9.97199 47.325 9.91696 47.3573 9.87164C47.3962 9.81985 47.4609 9.77777 47.5516 9.74539C47.6422 9.71302 47.7652 9.69036 47.9206 9.67741C48.0824 9.66447 48.2831 9.65799 48.5227 9.65799C48.7881 9.65799 49.0018 9.6677 49.1636 9.68713C49.3255 9.70007 49.4517 9.72273 49.5424 9.75511C49.6395 9.781 49.7075 9.82308 49.7463 9.88135C49.7852 9.93315 49.8175 9.99789 49.8434 10.0756L51.8148 16.4365L51.8731 16.6793L51.9314 16.4365L53.8737 10.0756C53.8931 9.99789 53.9222 9.93315 53.9611 9.88135C54.0064 9.82308 54.0744 9.781 54.165 9.75511C54.2556 9.72273 54.3754 9.70007 54.5243 9.68713C54.6797 9.6677 54.8804 9.65799 55.1264 9.65799C55.366 9.65799 55.5602 9.66447 55.7091 9.67741C55.8645 9.69036 55.9843 9.71302 56.0684 9.74539C56.1526 9.77777 56.2109 9.81985 56.2432 9.87164C56.2756 9.91696 56.2918 9.97199 56.2918 10.0367ZM65.5467 14.1252C65.5467 14.423 65.4788 14.6432 65.3428 14.7856C65.2133 14.928 65.032 14.9993 64.799 14.9993H59.5257C59.5257 15.3683 59.5678 15.7049 59.6519 16.0092C59.7426 16.307 59.8818 16.5628 60.0695 16.7764C60.2637 16.9836 60.5098 17.1422 60.8076 17.2523C61.1119 17.3624 61.4744 17.4174 61.8953 17.4174C62.3226 17.4174 62.6981 17.3882 63.0218 17.33C63.3455 17.2652 63.6239 17.1973 63.857 17.126C64.0965 17.0484 64.294 16.9804 64.4494 16.9221C64.6047 16.8574 64.731 16.825 64.8281 16.825C64.8864 16.825 64.9349 16.8379 64.9738 16.8638C65.0126 16.8833 65.045 16.9221 65.0709 16.9804C65.0968 17.0386 65.113 17.1228 65.1194 17.2329C65.1324 17.3365 65.1389 17.4692 65.1389 17.631C65.1389 17.7735 65.1356 17.8965 65.1292 18.0001C65.1227 18.0972 65.113 18.1813 65.1 18.2526C65.0871 18.3238 65.0676 18.3853 65.0417 18.4371C65.0159 18.4824 64.9802 18.5277 64.9349 18.573C64.8961 18.6184 64.7828 18.6799 64.595 18.7576C64.4073 18.8352 64.1677 18.9129 63.8764 18.9906C63.585 19.0618 63.2516 19.1233 62.8761 19.1751C62.5006 19.2334 62.0992 19.2625 61.6719 19.2625C60.9015 19.2625 60.2249 19.1654 59.6422 18.9712C59.066 18.777 58.5837 18.4824 58.1952 18.0875C57.8068 17.6925 57.5154 17.194 57.3212 16.5919C57.1334 15.9898 57.0396 15.2841 57.0396 14.4748C57.0396 13.7044 57.1399 13.0117 57.3406 12.3966C57.5413 11.7751 57.8327 11.2507 58.2146 10.8234C58.5966 10.3896 59.0595 10.0594 59.6034 9.8328C60.1537 9.6062 60.772 9.4929 61.4582 9.4929C62.1834 9.4929 62.8017 9.59972 63.3131 9.81337C63.8311 10.027 64.2551 10.3248 64.5853 10.7068C64.9155 11.0823 65.1583 11.5291 65.3137 12.047C65.469 12.5649 65.5467 13.1282 65.5467 13.7368V14.1252ZM63.1772 13.426C63.1966 12.7397 63.0574 12.2024 62.7596 11.8139C62.4682 11.419 62.015 11.2215 61.4 11.2215C61.0892 11.2215 60.8173 11.2798 60.5842 11.3963C60.3576 11.5129 60.1666 11.6715 60.0113 11.8722C59.8623 12.0664 59.7458 12.2995 59.6616 12.5714C59.584 12.8368 59.5386 13.1217 59.5257 13.426H63.1772Z" fill="#F24E1E"/>
</svg>
