<svg width="26" height="18" viewBox="0 0 26 18" fill="none" xmlns="http://www.w3.org/2000/svg">
<path d="M20.7001 11.4C23.1302 11.4 25.1001 13.6 25.1001 15.25C25.1001 16.1613 24.3614 16.9 23.4501 16.9H22.9001M18.5001 8.1C20.3227 8.1 21.8001 6.62254 21.8001 4.8C21.8001 2.97746 20.3227 1.5 18.5001 1.5M5.30015 11.4C2.87009 11.4 0.900146 13.6 0.900146 15.25C0.900146 16.1613 1.63888 16.9 2.55015 16.9H3.10015M7.50015 8.1C5.67761 8.1 4.20015 6.62254 4.20015 4.8C4.20015 2.97746 5.67761 1.5 7.50015 1.5M17.9501 16.9H8.05015C7.13888 16.9 6.40015 16.1613 6.40015 15.25C6.40015 12.5 9.70015 11.4 13.0001 11.4C16.3001 11.4 19.6001 12.5 19.6001 15.25C19.6001 16.1613 18.8614 16.9 17.9501 16.9ZM16.3001 4.8C16.3001 6.62254 14.8227 8.1 13.0001 8.1C11.1776 8.1 9.70015 6.62254 9.70015 4.8C9.70015 2.97746 11.1776 1.5 13.0001 1.5C14.8227 1.5 16.3001 2.97746 16.3001 4.8Z" stroke="black" stroke-width="1.65" stroke-linecap="round" stroke-linejoin="round"/>
</svg>
