<svg width="18" height="21" viewBox="0 0 18 21" fill="none" xmlns="http://www.w3.org/2000/svg">
<path d="M1 3.5L7 3.5M7 3.5C7 4.60457 7.89543 5.5 9 5.5C10.1046 5.5 11 4.60457 11 3.5M7 3.5C7 2.39543 7.89543 1.5 9 1.5C10.1046 1.5 11 2.39543 11 3.5M11 3.5L17 3.5M1 10.5L13 10.5M13 10.5C13 11.6046 13.8954 12.5 15 12.5C16.1046 12.5 17 11.6046 17 10.5C17 9.39543 16.1046 8.5 15 8.5C13.8954 8.5 13 9.39543 13 10.5ZM5 17.5L17 17.5M5 17.5C5 16.3954 4.10457 15.5 3 15.5C1.89543 15.5 1 16.3954 1 17.5C1 18.6046 1.89543 19.5 3 19.5C4.10457 19.5 5 18.6046 5 17.5Z" stroke="black" stroke-width="1.5" stroke-linecap="round"/>
</svg>
