<svg width="14" height="15" viewBox="0 0 14 15" fill="none" xmlns="http://www.w3.org/2000/svg">
<path d="M6.44075 1.91576C6.63963 1.3912 7.39227 1.3912 7.59177 1.91576L8.87828 5.47955C8.92316 5.59564 9.00219 5.69539 9.10494 5.76563C9.20769 5.83587 9.32933 5.8733 9.45379 5.87297L12.6154 5.87297C13.1996 5.87297 13.4544 6.60015 12.9951 6.95628L10.7453 8.98057C10.6445 9.05804 10.5708 9.16545 10.5349 9.28738C10.4989 9.40932 10.5025 9.5395 10.5451 9.65927L11.3668 13.1416C11.5669 13.701 10.9193 14.1814 10.4295 13.8371L7.37362 11.898C7.26897 11.8244 7.14418 11.785 7.01626 11.785C6.88835 11.785 6.76355 11.8244 6.6589 11.898L3.60298 13.8371C3.11386 14.1814 2.46563 13.7004 2.66576 13.1416L3.48738 9.65927C3.53 9.5395 3.53359 9.40932 3.49764 9.28738C3.46169 9.16545 3.38804 9.05804 3.28726 8.98057L1.03742 6.95628C0.577514 6.60015 0.833572 5.87297 1.41654 5.87297L4.57811 5.87297C4.7026 5.87339 4.82427 5.83599 4.92704 5.76574C5.0298 5.69549 5.10882 5.59569 5.15362 5.47955L6.44013 1.91576H6.44075Z" stroke="#FFFFFE" stroke-width="1.36736" stroke-linecap="round" stroke-linejoin="round"/>
</svg>
